<svg version="1.1" id="Layer_1" xmlns="http://www.w3.org/2000/svg" xmlns:xlink="http://www.w3.org/1999/xlink" x="0px" y="0px"
	 width="100%" viewBox="0 0 1024 1024" enable-background="new 0 0 1024 1024" xml:space="preserve">
<path fill="#000000" opacity="1.000000" stroke="none" 
	d="
M311.172363,505.000000 
	C311.173035,515.661438 311.062286,525.824768 311.230408,535.983459 
	C311.294586,539.861023 309.875427,541.289368 305.980835,541.255798 
	C290.656555,541.123413 275.327332,541.040588 260.006592,541.312500 
	C254.731964,541.406128 254.540695,538.244568 254.788147,534.068237 
	C249.990326,536.160950 245.899948,538.428406 241.525833,539.772400 
	C218.003632,547.000305 195.573013,545.137756 175.931168,529.346191 
	C161.670944,517.881287 157.623184,501.688354 160.156647,484.302216 
	C162.900192,465.474152 174.768005,453.218445 192.244873,446.751648 
	C211.008240,439.808868 230.094437,440.368042 249.106232,446.245392 
	C250.647842,446.721954 252.111984,447.751038 254.181824,447.038940 
	C255.580643,442.797852 254.690109,438.300903 254.827057,433.895599 
	C254.982239,428.903046 254.750092,423.898560 254.899918,418.905640 
	C254.991455,415.855591 253.697723,414.180847 250.784622,413.695099 
	C229.055313,410.071747 208.001801,410.257812 189.370590,424.444733 
	C185.100571,427.696167 180.578552,427.462860 178.330688,424.121552 
	C176.248627,421.026703 177.480164,416.905426 181.811935,413.967682 
	C190.959305,407.764252 201.473145,404.734314 212.106049,402.930634 
	C234.067749,399.205292 255.848709,400.659882 277.102051,407.718719 
	C297.645752,414.541931 309.028687,430.030457 310.465271,451.567719 
	C311.642731,469.220276 310.790741,486.859772 311.172363,505.000000 
M254.857071,482.500061 
	C254.857773,476.500061 254.740051,470.496796 254.906464,464.501404 
	C254.996979,461.239960 253.834137,459.286530 250.782181,457.941467 
	C242.400513,454.247528 233.572906,452.862610 224.546188,452.345184 
	C220.818619,452.131561 219.227203,453.797638 219.247040,457.723145 
	C219.365875,481.222412 219.348282,504.722778 219.255920,528.222290 
	C219.242371,531.672180 220.404114,532.981079 223.930130,532.810303 
	C233.908310,532.326965 242.576889,528.345459 250.963455,523.362671 
	C253.874649,521.632996 254.970062,519.387817 254.917145,515.998901 
	C254.748032,505.168274 254.855576,494.333313 254.857071,482.500061 
z"/>
<path fill="#000000" opacity="1.000000" stroke="none" 
	d="
M771.855591,544.737549 
	C787.590149,534.699646 803.969604,535.411133 821.650452,540.868958 
	C821.650452,533.868652 821.763916,527.485718 821.584351,521.110962 
	C821.527283,519.085327 819.471130,518.706726 817.837830,518.424011 
	C804.125366,516.050659 790.978027,516.911621 779.175354,525.315613 
	C776.586426,527.158997 773.462463,528.776062 771.284912,525.518982 
	C769.055847,522.185120 771.334656,519.438171 774.396729,517.799316 
	C787.111694,510.994202 800.756348,508.737335 815.011230,510.052887 
	C823.463379,510.832886 831.815002,512.067810 839.765320,515.446106 
	C851.937805,520.618530 858.655151,529.994385 859.106079,542.797668 
	C859.791748,562.270142 859.310181,581.783813 859.302307,601.280029 
	C859.302124,601.745178 859.041199,602.210205 858.720398,603.281006 
	C847.399780,603.281006 835.964478,603.272766 824.529114,603.287903 
	C822.209961,603.290955 822.061707,600.918945 820.746460,599.489990 
	C812.522400,603.452576 804.123169,605.984558 795.080811,605.235596 
	C783.083252,604.241760 772.006531,600.962097 764.519165,590.710632 
	C755.230225,577.992554 755.020386,556.876404 771.855591,544.737549 
M798.956665,547.965393 
	C798.797119,563.114136 798.715271,578.264465 798.422668,593.410583 
	C798.350647,597.137634 799.917358,598.144348 803.254761,597.592957 
	C808.566650,596.715332 813.540771,594.980652 818.243774,592.314941 
	C820.890442,590.814697 821.919373,588.833923 821.868286,585.826782 
	C821.740906,578.330811 821.846130,570.830872 821.853760,563.332520 
	C821.870178,547.272766 820.648682,545.942078 804.540771,544.526001 
	C803.550049,544.438904 802.543335,544.425354 801.551147,544.488708 
	C799.960999,544.590027 799.230652,545.603333 798.956665,547.965393 
z"/>
<path fill="#000000" opacity="1.000000" stroke="none" 
	d="
M602.649719,553.806885 
	C613.491150,538.672546 628.768799,536.094421 645.492065,537.367432 
	C650.628967,537.758423 655.519165,539.482056 661.527344,540.869202 
	C661.527344,533.915649 661.631287,527.530579 661.467346,521.152344 
	C661.414612,519.100525 659.377686,518.704468 657.753845,518.429077 
	C643.892822,516.078857 630.538330,516.741333 618.581665,525.291626 
	C615.976562,527.154541 613.031372,528.779419 610.770630,525.416626 
	C608.335938,521.794983 611.152527,519.381348 614.018860,517.840759 
	C626.712341,511.018188 640.343750,508.745697 654.612549,510.105774 
	C661.401062,510.752869 668.164612,511.587646 674.686707,513.776794 
	C690.845337,519.200378 698.794800,529.263489 699.192505,546.352295 
	C699.599487,563.840210 699.224854,581.345276 699.345764,598.841797 
	C699.370239,602.385864 697.951660,603.471802 694.594910,603.420227 
	C685.598389,603.281982 676.597473,603.302612 667.600037,603.408997 
	C664.434082,603.446350 661.629150,603.226562 660.691895,599.189331 
	C648.406067,605.384460 635.996460,606.947449 623.047485,603.234070 
	C600.703369,596.826416 591.330322,574.533020 602.649719,553.806885 
M638.064514,590.354980 
	C638.167786,598.412537 638.352905,598.505554 646.356689,596.930359 
	C650.677185,596.080139 654.530212,594.240173 658.303894,592.079773 
	C660.715881,590.698914 661.780090,588.880981 661.726624,586.016235 
	C661.580688,578.200684 661.693665,570.380310 661.696411,562.561890 
	C661.701843,547.446533 660.924805,546.574890 645.668579,544.558167 
	C645.009888,544.471130 644.339722,544.467346 643.682739,544.371155 
	C639.732666,543.792664 637.956299,545.124329 638.021301,549.472900 
	C638.220215,562.777649 638.075684,576.087524 638.064514,590.354980 
z"/>
<path fill="#000000" opacity="1.000000" stroke="none" 
	d="
M378.342102,510.892792 
	C388.425201,509.066406 398.034760,509.214233 407.313934,512.582520 
	C428.936371,520.431213 436.916351,536.626770 437.014893,556.356750 
	C437.035126,560.408447 434.854370,561.276367 431.272491,561.248657 
	C416.289429,561.132690 401.303070,561.334778 386.322083,561.123596 
	C381.792908,561.059692 380.103302,562.468994 380.292297,567.120850 
	C380.629944,575.432373 380.507019,583.765625 380.441650,592.088806 
	C380.416565,595.286682 381.558350,596.800781 384.925812,597.222168 
	C398.779510,598.955750 411.046387,596.152649 420.883362,585.577087 
	C422.988708,583.313660 425.334229,579.909851 428.703400,582.891113 
	C432.303467,586.076599 429.141174,589.126953 426.914459,591.370605 
	C404.555328,613.900085 352.858887,610.242371 340.657013,572.018799 
	C332.207458,545.549805 348.052216,518.212341 375.514832,511.630310 
	C376.322601,511.436707 377.120026,511.200104 378.342102,510.892792 
M380.576050,551.720398 
	C381.109924,552.311218 381.589630,553.351746 382.185974,553.423462 
	C388.298553,554.159241 394.439880,553.847290 400.567871,553.595886 
	C402.519592,553.515808 402.780518,551.861145 402.784210,550.290222 
	C402.806458,540.827942 402.769806,531.365417 402.840546,521.903625 
	C402.859314,519.388000 401.579437,518.523010 399.324738,517.984863 
	C394.711426,516.883789 390.070831,517.440430 385.441711,517.371338 
	C381.698242,517.315491 380.240448,519.162598 380.325500,522.970215 
	C380.533020,532.262085 380.425262,541.560974 380.576050,551.720398 
z"/>
<path fill="#000000" opacity="1.000000" stroke="none" 
	d="
M750.315491,579.000000 
	C750.308533,585.994934 750.226074,592.491028 750.326050,598.984314 
	C750.375122,602.172852 749.068665,603.438110 745.870178,603.401855 
	C736.212280,603.292358 726.551575,603.284607 716.893677,603.393311 
	C713.581177,603.430664 712.636475,601.968323 712.641541,598.859131 
	C712.702454,561.388245 712.704163,523.917114 712.630920,486.446259 
	C712.624207,483.001526 713.896790,481.719604 717.330139,481.764862 
	C726.654419,481.887756 735.987061,481.960876 745.305542,481.685547 
	C749.906006,481.549652 750.370605,483.903412 750.361023,487.570312 
	C750.281921,517.880066 750.315613,548.190063 750.315491,579.000000 
z"/>
<path fill="#000000" opacity="1.000000" stroke="none" 
	d="
M490.208282,518.657532 
	C485.317078,517.109741 480.682495,516.867249 476.002747,517.121399 
	C473.807373,517.240662 471.524017,517.404480 470.509521,519.788696 
	C469.453156,522.271301 470.634338,524.341125 472.203827,526.175415 
	C475.582550,530.123962 479.658600,533.300964 483.782959,536.411011 
	C491.493164,542.225037 499.407288,547.819946 505.678833,555.278320 
	C511.637390,562.364502 514.634399,570.250977 512.529785,579.753845 
	C510.322815,589.718750 504.318085,596.423279 495.284271,600.337708 
	C479.896179,607.005615 464.260010,607.009705 448.668030,600.854919 
	C445.403717,599.566345 442.328064,597.818787 440.172791,594.915161 
	C438.769989,593.025330 438.282440,590.938538 440.134735,589.021057 
	C442.101013,586.985596 444.204193,587.745117 445.893555,589.313599 
	C454.421112,597.231079 464.808136,598.385132 475.733215,597.803345 
	C478.105713,597.676941 480.368835,597.206055 482.451935,596.106201 
	C486.114868,594.172119 486.802368,591.184204 484.247559,587.883789 
	C481.779907,584.695984 478.491791,582.356323 475.359039,579.880737 
	C466.995575,573.271545 458.628967,566.666382 451.198792,558.982666 
	C447.242401,554.891296 443.662842,550.524902 441.689392,545.071411 
	C437.832794,534.413879 440.858276,524.407349 449.964935,517.685852 
	C463.667236,507.572357 489.339081,507.005310 503.531525,516.550720 
	C504.757019,517.374939 505.919647,518.393494 506.846252,519.536743 
	C508.125854,521.115601 508.219208,523.023071 506.903564,524.601624 
	C505.493713,526.293152 503.575500,526.089233 501.932953,524.965881 
	C498.353516,522.517944 494.835449,519.995483 490.208282,518.657532 
z"/>
<path fill="#000000" opacity="1.000000" stroke="none" 
	d="
M517.485718,579.335876 
	C506.705017,554.669067 513.501953,529.731873 535.296082,517.177429 
	C553.713806,506.567963 572.829773,507.392639 591.586243,517.200806 
	C592.460144,517.657776 593.286682,518.274292 593.998413,518.958923 
	C595.930847,520.817627 597.302185,523.017761 595.425354,525.547791 
	C593.457092,528.201111 590.798889,527.303772 588.774292,525.737793 
	C583.228210,521.447937 577.009949,519.014771 570.166626,517.750732 
	C557.347107,515.382812 555.617004,516.463684 555.507812,528.968262 
	C555.324646,549.955200 555.522278,570.945251 555.369873,591.932678 
	C555.337769,596.355530 557.206726,597.737244 561.334717,597.748474 
	C571.807312,597.776855 581.440063,595.400879 589.806335,588.801758 
	C590.831177,587.993347 592.019409,587.268799 593.250244,586.877014 
	C594.703613,586.414307 596.257141,586.513367 597.311157,587.941833 
	C598.344666,589.342468 598.109741,590.805481 597.254028,592.147766 
	C595.220703,595.337158 592.276550,597.590576 588.927124,599.115723 
	C568.429626,608.449158 548.581238,607.762268 529.792236,594.675110 
	C524.369629,590.898071 520.536072,585.619019 517.485718,579.335876 
z"/>
<path fill="#000000" opacity="1.000000" stroke="none" 
	d="
M267.615234,590.125549 
	C265.537201,576.148438 278.468872,565.676758 293.062286,569.067505 
	C303.377747,571.464233 309.852112,580.776794 307.985443,590.532715 
	C306.152222,600.113586 295.030853,606.845154 283.923279,605.089783 
	C275.370728,603.738281 269.536621,599.347595 267.615234,590.125549 
z"/>
<path fill="#000000" opacity="1.000000" stroke="none" 
	d="
M804.978821,647.329102 
	C809.500305,647.403564 813.633484,647.431946 817.766418,647.481018 
	C819.112244,647.497009 820.544617,647.481506 820.932739,649.198730 
	C821.258728,650.640930 820.182129,651.207031 819.166199,651.851746 
	C815.881226,653.936401 817.701843,657.292725 817.206787,660.070435 
	C816.927185,661.639648 817.401550,663.780762 815.050903,663.897095 
	C812.616882,664.017578 812.868835,661.907410 812.731750,660.290527 
	C812.675659,659.629028 812.699890,658.960815 812.684875,658.295715 
	C812.539856,651.854126 810.027344,649.898499 803.981812,651.616394 
	C801.898621,652.208374 801.276733,653.884277 801.255798,655.878296 
	C801.232971,658.058838 801.852783,659.825439 804.197754,660.484802 
	C805.587219,660.875427 807.188171,659.820374 808.510925,661.058044 
	C809.117859,663.796021 807.256348,664.120789 805.366699,664.312805 
	C801.757996,664.679626 798.691406,663.802490 797.167236,660.142212 
	C795.465393,656.054993 793.210632,657.007812 790.447571,658.605713 
	C791.588806,661.744324 794.610413,659.752930 795.881714,662.040466 
	C794.724365,665.797729 791.434631,664.032776 789.042297,664.186829 
	C786.323303,664.361877 785.896423,662.269470 785.881165,660.110779 
	C785.861389,657.316956 785.876343,654.522766 785.876343,651.726562 
	C781.809998,651.204163 782.218811,653.707520 781.886230,656.053467 
	C781.492493,658.831055 783.634583,663.753662 779.180603,663.697449 
	C775.241699,663.647888 777.382202,658.876221 776.895691,656.203064 
	C776.555115,654.332031 777.084717,652.109863 773.865234,651.772095 
	C772.394287,654.832520 773.315857,658.036377 772.911133,661.057129 
	C772.702393,662.614685 772.388794,664.122375 770.352539,664.066101 
	C768.547058,664.016296 768.433716,662.534851 768.159973,661.240356 
	C768.091492,660.916870 768.087158,660.579956 768.050903,660.249451 
	C766.743896,648.348999 767.279053,647.768799 779.305786,647.596619 
	C782.617310,647.549255 785.926086,647.247742 789.236816,647.233398 
	C791.601746,647.223145 794.989136,646.125427 795.667114,649.271301 
	C796.360474,652.488159 792.089111,650.514648 790.809448,652.632629 
	C792.027588,654.652405 794.633301,652.887451 796.021179,655.013855 
	C797.421753,650.173523 799.964783,647.457764 804.978821,647.329102 
z"/>
<path fill="#000000" opacity="1.000000" stroke="none" 
	d="
M822.124878,676.987976 
	C823.138550,679.307312 825.277527,679.797180 827.096130,680.849487 
	C828.673401,679.189026 828.044983,677.212097 828.456238,675.509155 
	C828.873962,673.779114 829.188721,672.215393 831.375610,672.143005 
	C833.402771,672.075928 834.338867,673.367188 834.913574,675.060059 
	C835.594604,677.066223 836.248962,679.081360 837.001221,681.353394 
	C839.047791,679.310669 838.954346,676.799377 839.886597,674.728271 
	C840.657837,673.014893 841.781006,672.004883 843.714722,672.205872 
	C845.895081,672.432495 846.264893,674.015930 846.275513,675.811646 
	C846.293274,678.806885 846.343811,681.802917 846.293091,684.797119 
	C846.265686,686.413208 846.523560,688.536377 844.115173,688.520630 
	C841.795532,688.505432 841.943359,686.459656 841.859619,684.798645 
	C841.829346,684.198853 841.797852,683.599121 841.753235,682.734802 
	C839.663574,684.591797 840.597656,688.291565 837.391907,688.682922 
	C834.751831,689.005249 834.635254,686.250000 833.418640,684.734192 
	C832.432983,686.155579 833.018921,688.849426 830.320312,688.649902 
	C827.798889,688.463562 828.931763,686.113770 828.352356,684.194092 
	C826.650574,688.300781 823.827759,689.608704 820.150818,689.064819 
	C818.213745,688.778381 816.602844,687.948242 817.120972,685.498108 
	C818.635010,683.775635 821.161438,685.930908 822.587708,683.993225 
	C822.263245,682.385925 820.694641,682.255432 819.684692,681.514954 
	C817.447876,679.874756 816.113525,677.811096 817.277588,675.099670 
	C818.519409,672.207214 821.222595,671.750488 824.016174,672.082336 
	C825.299683,672.234741 826.834656,672.587219 826.932556,674.272034 
	C827.043884,676.187988 825.482910,676.130737 824.146362,676.273682 
	C823.503296,676.342407 822.876465,676.563171 822.124878,676.987976 
z"/>
<path fill="#000000" opacity="1.000000" stroke="none" 
	d="
M843.447449,660.130737 
	C840.756287,658.250977 841.490417,660.615479 841.335022,661.543152 
	C841.086975,663.024414 840.659363,664.178467 838.890137,663.981506 
	C837.157288,663.788635 836.876648,662.418457 836.848572,661.046875 
	C836.787109,658.052551 836.771729,655.055237 836.838074,652.061279 
	C836.874023,650.438965 836.612732,648.317261 838.690186,647.892883 
	C841.627563,647.292847 844.731812,647.161499 847.234924,649.315308 
	C848.706482,650.581604 849.321411,652.290100 848.550720,654.272095 
	C847.865906,656.033325 846.223267,657.786621 848.758545,659.927429 
	C851.292786,657.540161 851.346924,654.060791 852.611389,651.195374 
	C853.433777,649.331787 854.009094,647.372864 856.624390,647.489990 
	C859.022583,647.597412 859.463135,649.544006 860.065369,651.220459 
	C861.501282,655.217102 862.820679,659.255615 864.147034,663.159180 
	C861.477600,664.899719 860.427673,663.663696 859.235107,661.991882 
	C857.645569,659.763733 855.773438,659.892212 853.810608,661.801392 
	C849.727478,665.772949 847.227661,665.389038 843.447449,660.130737 
z"/>
<path fill="#000000" opacity="1.000000" stroke="none" 
	d="
M722.835510,659.398926 
	C722.842407,657.257935 722.771790,655.423706 722.874817,653.599304 
	C722.991272,651.536438 722.179993,648.788086 724.861816,647.997314 
	C727.568481,647.199158 730.579651,647.268433 732.953186,649.223511 
	C735.242493,651.109131 735.259521,653.490417 733.676392,655.913391 
	C731.574463,659.130188 736.204651,660.708374 735.526062,663.574707 
	C732.219238,663.956604 732.219238,663.956604 728.208801,659.034119 
	C726.605774,660.650391 727.993347,664.632507 723.847473,664.301819 
	C721.051697,664.078796 718.953125,663.773499 717.042969,661.305054 
	C715.660645,659.518799 713.419800,660.122253 712.176697,662.364868 
	C711.354797,663.847412 710.092224,664.779053 708.506226,663.836792 
	C707.045532,662.969055 707.776123,661.486084 708.218262,660.245422 
	C709.333801,657.114929 710.520081,654.008972 711.588867,650.862854 
	C712.225830,648.987976 713.080383,647.547668 715.368225,647.588745 
	C717.495789,647.626953 718.093567,649.135803 718.670715,650.754639 
	C719.787109,653.886292 720.935730,657.006470 722.072754,660.130798 
	C722.129517,660.286743 722.173523,660.547607 722.271545,660.572815 
	C723.258850,660.826965 722.620728,659.987366 722.835510,659.398926 
z"/>
<path fill="#000000" opacity="1.000000" stroke="none" 
	d="
M746.648560,686.484497 
	C746.085022,688.404663 745.068970,689.051575 743.519348,688.503174 
	C742.225464,688.045288 741.937866,686.875671 741.897644,685.663574 
	C741.820496,683.333435 741.826294,681.000244 741.726562,678.671326 
	C741.681091,677.608276 741.250183,676.663452 740.000549,676.643555 
	C738.746582,676.623535 738.285339,677.562866 738.220215,678.620605 
	C738.087402,680.780518 738.087708,682.948425 737.978699,685.110291 
	C737.902344,686.626770 737.793884,688.203430 735.962158,688.723938 
	C734.135132,689.242981 732.634277,688.602722 731.630554,687.063110 
	C730.185547,684.846680 728.864990,682.549011 726.882629,679.283081 
	C726.882629,682.189758 726.933594,684.061218 726.866211,685.928345 
	C726.814270,687.366333 726.366333,688.670715 724.569336,688.507690 
	C723.085388,688.372925 722.794128,687.151123 722.783508,685.932739 
	C722.753052,682.434631 722.761902,678.935852 722.798767,675.437805 
	C722.813477,674.042908 723.123230,672.740479 724.738770,672.340820 
	C726.381104,671.934570 727.709473,672.483459 728.627502,673.881836 
	C730.053589,676.053894 731.427002,678.260498 733.075317,680.849121 
	C734.440369,671.949829 734.440369,671.942200 743.543640,671.957214 
	C745.040710,671.959717 746.563354,671.909607 748.028137,672.157043 
	C749.873230,672.468750 751.040833,674.337830 749.543518,675.266724 
	C744.895203,678.150085 747.207703,682.405273 746.648560,686.484497 
z"/>
<path fill="#000000" opacity="1.000000" stroke="none" 
	d="
M839.840820,702.718994 
	C840.388672,703.444031 840.765930,703.917175 841.243042,704.515564 
	C842.433838,702.772827 841.768860,701.044617 842.140625,699.485413 
	C842.422546,698.303040 842.760986,697.123901 844.284485,697.229126 
	C845.739075,697.329651 846.186157,698.449341 846.212341,699.691101 
	C846.282593,703.014954 846.320129,706.340820 846.285461,709.664978 
	C846.269958,711.149292 846.270020,712.766113 844.270142,713.147827 
	C842.476929,713.489990 840.955444,713.073975 839.949341,711.446838 
	C838.733643,709.480896 837.556946,707.490845 836.095398,705.066589 
	C834.775513,707.140686 835.579895,709.128723 835.243408,710.899170 
	C835.042664,711.955200 834.694885,712.873962 833.504578,712.993652 
	C832.354675,713.109253 831.496277,712.440430 831.363831,711.356812 
	C830.820007,706.907837 830.003174,702.260437 831.868896,698.095642 
	C833.834961,693.706726 837.393738,691.242004 842.859314,693.172974 
	C843.128296,697.505859 839.353760,695.779297 837.358398,696.559875 
	C836.875977,699.130432 838.772644,700.604675 839.840820,702.718994 
z"/>
<path fill="#000000" opacity="1.000000" stroke="none" 
	d="
M737.333130,661.416931 
	C736.786255,660.323486 736.349976,659.577942 736.186829,658.776733 
	C735.372375,654.774719 735.704346,651.040527 739.500793,648.600891 
	C742.627319,646.591797 745.895020,646.642761 748.773499,649.081970 
	C752.148865,651.942200 752.404053,655.809082 751.013062,659.601074 
	C750.084900,662.131409 748.744141,664.378784 751.790588,668.056458 
	C745.148926,667.822327 741.764038,663.783020 737.333130,661.416931 
M741.437195,653.002747 
	C740.817993,654.721130 740.368469,656.453735 741.094849,658.256226 
	C741.791382,659.984680 742.970947,661.229675 744.835449,660.124329 
	C747.418152,658.593140 747.290344,655.907043 746.471130,653.565796 
	C745.682922,651.313110 743.877197,650.747620 741.437195,653.002747 
z"/>
<path fill="#000000" opacity="1.000000" stroke="none" 
	d="
M781.072998,681.696533 
	C781.685486,674.967285 783.879578,672.079834 788.543518,671.919250 
	C792.642578,671.778015 795.585083,673.630188 796.751587,677.764587 
	C798.184631,682.843323 796.101562,687.429810 791.756165,688.824768 
	C786.726318,690.439453 783.004883,688.082886 781.072998,681.696533 
M792.010437,679.224121 
	C791.628540,677.421570 790.734131,676.183472 788.679688,676.362610 
	C787.388428,676.475220 786.678223,677.352783 786.189514,678.465576 
	C785.405090,680.251465 785.401489,681.967529 786.640015,683.566223 
	C787.423584,684.577698 788.505798,684.966003 789.700500,684.628784 
	C792.127502,683.943665 792.340881,682.017151 792.010437,679.224121 
z"/>
<path fill="#000000" opacity="1.000000" stroke="none" 
	d="
M772.487000,682.724731 
	C773.142822,684.743591 774.831970,685.994446 774.435486,688.251770 
	C770.093445,690.374451 769.894714,685.046936 767.270386,684.178894 
	C766.211243,684.516846 766.426697,685.479919 766.335754,686.243530 
	C766.185669,687.504883 765.841980,688.607849 764.326599,688.559509 
	C762.690186,688.507324 761.978271,687.355225 761.946716,685.900940 
	C761.867493,682.255859 761.549011,678.562744 761.998718,674.973083 
	C762.534363,670.697449 766.126831,671.899597 768.700806,672.292358 
	C772.138184,672.816772 774.651367,674.637573 773.864197,678.710938 
	C773.619507,679.976990 772.914978,681.154114 772.487000,682.724731 
z"/>
<path fill="#000000" opacity="1.000000" stroke="none" 
	d="
M861.402954,686.230103 
	C856.889832,689.829468 852.710510,689.984314 849.603149,686.974731 
	C846.679077,684.142639 846.398254,677.815491 849.053894,674.602112 
	C851.444763,671.709167 856.053040,671.060364 859.456421,673.137451 
	C863.371826,675.527100 864.179810,680.225525 861.402954,686.230103 
M852.240356,682.049255 
	C852.810669,684.550415 854.442993,685.347900 856.628906,684.284119 
	C858.711548,683.270569 858.946594,681.191711 858.444275,679.154236 
	C858.018799,677.428101 856.909058,676.129089 854.943420,676.379822 
	C851.965576,676.759583 852.202454,679.138733 852.240356,682.049255 
z"/>
<path fill="#000000" opacity="1.000000" stroke="none" 
	d="
M810.977600,686.945374 
	C806.465210,691.724609 805.896851,685.388428 803.409912,684.267883 
	C801.942932,684.434143 802.463623,685.725952 802.296936,686.549377 
	C802.025940,687.888000 801.357361,688.673279 799.977661,688.619385 
	C798.574463,688.564453 797.875488,687.626831 797.851074,686.335205 
	C797.778992,682.525818 797.311279,678.634583 797.915405,674.924744 
	C798.639099,670.480896 802.364441,672.036255 805.109497,672.506775 
	C808.548889,673.096436 811.132568,675.642944 809.431641,678.752197 
	C807.537903,682.213806 808.614929,684.199097 810.782349,686.776733 
	C810.999146,686.984192 810.977600,686.945374 810.977600,686.945374 
z"/>
<path fill="#000000" opacity="1.000000" stroke="none" 
	d="
M849.518921,711.464844 
	C846.303101,705.889160 846.682556,700.677307 850.388000,698.272888 
	C853.577393,696.203186 857.078918,695.936279 860.115845,698.392761 
	C863.244385,700.923340 863.909302,704.500061 862.802673,708.303894 
	C861.729309,711.993103 859.105896,713.589294 855.313416,713.457764 
	C853.301819,713.388062 851.325195,713.308411 849.518921,711.464844 
M852.314270,706.940552 
	C852.772339,708.532104 853.676941,709.626892 855.475281,709.533020 
	C857.029663,709.451965 857.811401,708.334412 858.273376,707.039673 
	C858.927185,705.207336 858.770752,703.409668 857.472290,701.876160 
	C856.647522,700.902100 855.541077,700.563721 854.329773,701.108948 
	C852.054871,702.132935 852.073364,704.158691 852.314270,706.940552 
z"/>
<path fill="#000000" opacity="1.000000" stroke="none" 
	d="
M794.468262,697.046875 
	C800.519104,698.865845 802.749451,701.941650 801.879211,706.759888 
	C801.064575,711.270203 797.745911,713.379211 792.246948,713.381775 
	C789.012085,713.383301 787.677307,712.091248 787.809875,708.944763 
	C787.893738,706.953491 787.976135,704.939514 787.779907,702.963562 
	C787.306580,698.195801 789.127808,696.007812 794.468262,697.046875 
M795.534363,708.695679 
	C795.947998,708.012573 796.564087,707.376526 796.736023,706.637207 
	C797.193787,704.669067 797.334412,702.580383 795.070251,701.607849 
	C793.585571,700.970032 792.196045,701.856140 792.486938,703.412109 
	C792.859924,705.406860 790.189331,708.950317 795.534363,708.695679 
z"/>
<path fill="#000000" opacity="1.000000" stroke="none" 
	d="
M828.092651,660.268738 
	C832.244019,658.632263 830.340820,655.176575 830.853455,652.470947 
	C831.196045,650.662415 830.272156,647.792053 833.151245,647.826904 
	C836.237549,647.864319 835.576050,650.815552 835.642334,652.838318 
	C835.701721,654.650330 835.477417,656.473816 835.340698,658.289490 
	C835.014893,662.617432 832.381165,664.280396 828.342346,664.322571 
	C824.113342,664.366699 821.827698,662.329651 821.687256,658.067261 
	C821.610962,655.750427 821.592712,653.428101 821.660400,651.111511 
	C821.701660,649.698914 821.365173,647.786743 823.589294,647.781067 
	C825.843567,647.775330 826.041992,649.594299 826.107666,651.324036 
	C826.195557,653.638245 826.160095,655.963623 826.396240,658.261719 
	C826.466736,658.947876 827.269958,659.558777 828.092651,660.268738 
z"/>
<path fill="#000000" opacity="1.000000" stroke="none" 
	d="
M756.517700,648.748413 
	C756.951843,651.220886 757.106201,653.359558 757.259399,655.498352 
	C757.398560,657.440796 757.039001,660.064209 759.804688,660.044983 
	C762.415894,660.026855 761.714294,657.425720 761.883606,655.738953 
	C762.081909,653.764587 762.023499,651.762756 762.255920,649.794006 
	C762.404663,648.533813 763.187744,647.645813 764.631165,647.815369 
	C765.831848,647.956360 766.315979,648.842163 766.328674,649.912598 
	C766.368103,653.224854 766.621460,656.572144 766.236450,659.840393 
	C765.912109,662.594238 763.810974,664.034424 760.996948,664.281372 
	C758.037170,664.541077 755.148438,664.326965 753.716125,661.284973 
	C751.945984,657.525452 752.565308,653.476318 753.121460,649.557251 
	C753.353088,647.924866 754.786255,647.696106 756.517700,648.748413 
z"/>
<path fill="#000000" opacity="1.000000" stroke="none" 
	d="
M750.914001,675.403259 
	C752.717651,672.165161 757.500854,670.821045 759.685974,672.599792 
	C761.177917,673.814270 761.225159,675.140076 759.336792,676.056458 
	C758.216675,676.600098 756.626160,675.771606 755.709900,677.277466 
	C756.323975,679.766663 760.455078,677.289124 760.406555,680.383362 
	C760.360840,683.300659 756.884521,681.422363 755.777039,683.306030 
	C755.975281,683.708557 756.070679,684.251099 756.392273,684.494202 
	C757.704041,685.485474 760.689331,684.482239 760.422913,687.172791 
	C760.171204,689.713928 757.651489,689.002380 755.972656,689.055237 
	C753.630005,689.129089 751.033447,689.151794 750.913086,685.795593 
	C750.794250,682.484863 750.879578,679.166748 750.914001,675.403259 
z"/>
<path fill="#000000" opacity="1.000000" stroke="none" 
	d="
M819.959595,700.354492 
	C821.586243,697.070007 826.924988,695.640930 829.053223,697.535095 
	C829.480896,697.915710 829.907959,698.708313 829.806396,699.202209 
	C829.317200,701.581482 826.780579,700.667480 825.206421,701.868896 
	C826.211731,703.613403 829.473389,702.305237 829.599060,705.095947 
	C829.150085,707.701294 825.556580,706.147400 824.782715,708.357910 
	C825.700378,710.814636 829.446411,708.547791 829.807617,711.992371 
	C827.496643,714.356934 824.371277,713.616821 821.766663,712.908691 
	C819.159058,712.199890 820.101257,709.298950 819.957275,707.267639 
	C819.805359,705.125549 819.925354,702.964172 819.959595,700.354492 
z"/>
<path fill="#000000" opacity="1.000000" stroke="none" 
	d="
M814.584045,713.439087 
	C811.873230,713.396301 809.092773,714.040771 808.787903,710.609802 
	C810.319946,708.493408 812.630859,710.578186 814.025635,708.920105 
	C814.008057,707.035828 812.130554,706.902527 811.110291,705.978882 
	C809.087036,704.147217 807.846130,702.002625 809.355469,699.417480 
	C810.897644,696.776123 813.538818,696.367554 816.328613,697.037292 
	C817.419922,697.299255 818.729919,697.665344 818.724487,699.136536 
	C818.719238,700.564819 817.697693,701.069092 816.382629,701.124084 
	C815.602905,701.156616 814.727905,701.015747 814.231262,701.887817 
	C820.852112,708.366943 820.997498,710.903931 814.584045,713.439087 
z"/>
<path fill="#000000" opacity="1.000000" stroke="none" 
	d="
M811.012573,687.001709 
	C811.070007,683.203491 811.036377,679.384521 811.196838,675.573792 
	C811.259888,674.075562 811.711975,672.424194 813.684448,672.444824 
	C815.683533,672.465698 816.004639,674.071411 816.011780,675.632019 
	C816.027649,679.113281 816.190979,682.620605 815.830383,686.068787 
	C815.505249,689.176880 813.773743,689.642944 811.231628,687.186768 
	C810.977600,686.945374 810.999146,686.984192 811.012573,687.001709 
z"/>
<path fill="#000000" opacity="1.000000" stroke="none" 
	d="
M775.691956,686.189697 
	C775.538513,682.359924 775.346680,678.911011 775.353699,675.462524 
	C775.356812,673.933838 775.851990,672.384644 777.846985,672.466003 
	C779.506897,672.533691 780.037659,673.873901 780.068604,675.241516 
	C780.150391,678.858398 780.125305,682.479431 780.055786,686.097107 
	C780.032104,687.327942 779.466614,688.365295 778.070984,688.526978 
	C776.659180,688.690491 775.959778,687.885010 775.691956,686.189697 
z"/>
<path fill="#000000" opacity="1.000000" stroke="none" 
	d="
M718.168335,688.418945 
	C715.588806,683.699707 717.008362,678.884460 716.872620,674.176636 
	C716.847412,673.302185 717.588806,672.656250 718.479126,672.539124 
	C719.555603,672.397461 720.658264,672.815430 720.818909,673.906128 
	C721.495239,678.497925 721.703735,683.124268 720.707397,687.695374 
	C720.538940,688.468201 719.442261,688.654541 718.168335,688.418945 
z"/>
<path fill="#000000" opacity="1.000000" stroke="none" 
	d="
M807.349670,707.853760 
	C806.932861,710.051270 808.222961,713.003296 805.107117,712.895874 
	C802.278687,712.798340 802.963684,710.005371 802.902649,708.158569 
	C802.809326,705.338684 802.923950,702.508118 803.051208,699.686646 
	C803.106201,698.467529 803.601685,697.332825 805.046692,697.251831 
	C806.860229,697.150269 807.227905,698.487488 807.271973,699.897949 
	C807.349915,702.390259 807.332275,704.885498 807.349670,707.853760 
z"/>
</svg>